<?xml version="1.0" encoding="UTF-8"?>
<svg id="Layer_1" data-name="Layer 1" xmlns="http://www.w3.org/2000/svg" xmlns:xlink="http://www.w3.org/1999/xlink" viewBox="0 0 1920 1365">
  <defs>
    <linearGradient id="linear-gradient" x1="-79.14" y1="155.25" x2="2109.27" y2="977.5" gradientUnits="userSpaceOnUse">
      <stop offset="0" stop-color="#ab05f2"/>
      <stop offset=".05" stop-color="#9e05f2"/>
      <stop offset=".09" stop-color="#9605f2"/>
      <stop offset=".12" stop-color="#8d06f2"/>
      <stop offset=".19" stop-color="#7d07f2"/>
      <stop offset=".24" stop-color="#7707f2"/>
      <stop offset=".31" stop-color="#6e07f2"/>
      <stop offset=".37" stop-color="#6607f2"/>
      <stop offset=".4" stop-color="#6107f2"/>
      <stop offset=".48" stop-color="#5707f2"/>
      <stop offset=".52" stop-color="#5207f2"/>
      <stop offset=".56" stop-color="#4c1feb"/>
      <stop offset=".61" stop-color="#463ce3"/>
      <stop offset=".66" stop-color="#3f59db"/>
      <stop offset=".72" stop-color="#3975d3"/>
      <stop offset=".76" stop-color="#348ccd"/>
      <stop offset=".79" stop-color="#30a1c7"/>
      <stop offset=".82" stop-color="#2bb6c1"/>
      <stop offset=".88" stop-color="#23d9b7"/>
      <stop offset=".91" stop-color="#5ce17f"/>
      <stop offset=".95" stop-color="#99e942"/>
      <stop offset=".99" stop-color="#d7f205"/>
    </linearGradient>
    <filter id="drop-shadow-1" filterUnits="userSpaceOnUse">
      <feOffset dx="0" dy="7"/>
      <feGaussianBlur result="blur" stdDeviation="20"/>
      <feFlood flood-color="#000" flood-opacity=".75"/>
      <feComposite in2="blur" operator="in"/>
      <feComposite in="SourceGraphic"/>
    </filter>
    <linearGradient id="linear-gradient-2" x1="-116.01" y1="139.36" x2="2027.09" y2="944.58" xlink:href="#linear-gradient"/>
    <filter id="drop-shadow-2" filterUnits="userSpaceOnUse">
      <feOffset dx="0" dy="7"/>
      <feGaussianBlur result="blur-2" stdDeviation="20"/>
      <feFlood flood-color="#000" flood-opacity=".75"/>
      <feComposite in2="blur-2" operator="in"/>
      <feComposite in="SourceGraphic"/>
    </filter>
    <linearGradient id="linear-gradient-3" x1="-92.03" y1="65.05" x2="2130.69" y2="900.18" xlink:href="#linear-gradient"/>
    <filter id="drop-shadow-3" filterUnits="userSpaceOnUse">
      <feOffset dx="0" dy="7"/>
      <feGaussianBlur result="blur-3" stdDeviation="20"/>
      <feFlood flood-color="#000" flood-opacity=".75"/>
      <feComposite in2="blur-3" operator="in"/>
      <feComposite in="SourceGraphic"/>
    </filter>
  </defs>
  <path class="cls-1" d="m1943,1315c-268.92-221.77-494.95-275.2-645-286-373.68-26.9-590.21,187.91-939,97-181.81-47.39-309.93-154.48-383-227-.07-264.67-.14-529.33-.21-794h1968.41c-.4,403.33-.8,806.67-1.21,1210Z"/>
  <path class="cls-3" d="m1944,1062.88c-261.01,87.67-471.46,96-615,87.55-386.17-22.72-568.14-202.56-936-171.78-180.58,15.11-324.6,72.91-418,119.35.26-369.67.53-739.33.79-1109h1968.41c-.07,357.96-.14,715.92-.21,1073.88Z"/>
  <path class="cls-2" d="m1943.18,1292.57c-271.55-247.74-501.77-307.99-657.18-319.57-346.81-25.83-555.43,173.29-928,97-174.61-35.75-305.05-115.58-382-171-.07-305.67-.14-611.33-.21-917h1968.41c-.34,436.86-.68,873.71-1.03,1310.57Z"/>
</svg>