<?xml version="1.0" encoding="UTF-8"?>
<svg id="Layer_2" data-name="Layer 2" xmlns="http://www.w3.org/2000/svg" viewBox="0 0 133.52 86.88">
  <defs>
    <style>
      .cls-1 {
        fill: #fff;
      }
    </style>
  </defs>
  <g id="Layer_1-2" data-name="Layer 1">
    <g>
      <path class="cls-1" d="m7.21,0l1,86.84H0L1,0h.17l.82,71.1h.2L3.01,0h.18l.82,71.1h.2L5.03,0h.18l.82,71.1h.2L7.04,0h.17Zm8.28,78.56v.89l34.07.9v.16l-23.67.74v.18l23.67.74v.16l-23.67.74v.18l23.67.74v.16l-23.67.74v.18l23.67.74v.16l-34.26.9v-.03h-.07l-.82-71.1h-.2l-.82,71.1h-.18l-.82-71.1h-.2l-.82,71.1h-.17l-.82-71.1h-.2l-.82,71.1h-.18L8.19,0h8.21l-.84,72.94,33.99-.9v7.42l-34.06-.9Zm23.46-1.08l-23.44-.73-.02,1.65,23.46-.73v-.18Zm0-1.82l-23.42-.73-.02,1.65,23.44-.73v-.18Zm-23.4-2.55l-.02,1.64,23.42-.73v-.18l-23.4-.73Z"/>
      <path class="cls-1" d="m56.02,0l1,86.84h-8.21L49.8,0h.17l.82,71.1h.2L51.82,0h.18l.82,71.1h.2L53.83,0h.18l.82,71.1h.2L55.85,0h.17Zm68.31,0l1,86.84h-8.21l.7-60.87-25.1,49.22-1.05-.02-1.05.02-25.69-50.08-.71,61.72h-.17l-.82-71.1h-.2l-.82,71.1h-.18l-.82-71.1h-.2l-.82,71.1h-.17l-.82-71.1h-.2l-.82,71.1h-.18L57,0h8.21l26.45,51.72L118.11,0h0s.17,0,.17,0l.82,71.1h.2L120.12,0h.18l.82,71.1h.2L122.13,0h.18l.82,71.1h.2L124.15,0h.18Zm-35.75,67.77l-23.61-45.84-.03,2.33,23.64,44.07v-.56Zm0-3.42l-23.58-45.58-.03,2.4,23.6,43.77v-.59Zm0-3.33l-23.54-45.41-.03,2.46,23.57,43.54v-.6Zm29.36-45.67l.02-1.57-26.29,48.49-26.6-48.8-.02,1.51,26.62,48.83,26.27-48.46Zm-51.89-7.04l25.63,49.87,25.63-49.87-.15-.12-25.48,47.78-25.48-47.78-.15.12Zm.07-3.41l25.55,50.05L117.22,4.9l-.15-.13-25.41,48.03L66.26,4.77l-.15.13Zm50.96,6.56l-25.41,47.65-25.41-47.65-.15.13,25.55,49.82,25.55-49.82-.15-.13Zm-22.37,52.86v.62l23.16-43.12.03-2.48-23.19,44.98Zm23.12-39.26l.03-2.4-23.15,45.08v.59l23.12-43.27Zm.07-6.47l.03-2.55-23.22,44.95v.63l23.19-43.03ZM133.52,0l-1,86.84h-.17l-.82-71.1h-.2l-.82,71.1h-.17l-.82-71.1h-.2l-.82,71.1h-.18l-.82-71.1h-.2l-.82,71.1h-.17L125.31,0h8.22Z"/>
    </g>
  </g>
</svg>