<?xml version="1.0" encoding="UTF-8"?>
<svg id="Layer_2" data-name="Layer 2" xmlns="http://www.w3.org/2000/svg" viewBox="0 0 1052.56 89.17">
  <defs>
    <style>
      .cls-1 {
        fill: #fff;
      }
    </style>
  </defs>
  <g id="Layer_1-2" data-name="Layer 1">
    <g>
      <path class="cls-1" d="m7.21,1.23l1,86.84H0L1,1.23h.17l.82,71.1h.2L3.01,1.23h.18l.82,71.1h.2L5.03,1.23h.17l.82,71.1h.2L7.04,1.23h.17Zm8.35,72.94l33.99-.9v7.43l-34.06-.9v.89l34.07.9v.16l-23.67.74v.18l23.67.74v.16l-23.67.74v.18l23.67.74v.16l-23.67.74v.18l23.67.74v.16l-34.26.9v-.03h-.07l-.82-71.1h-.2l-.82,71.1h-.18l-.82-71.1h-.2l-.82,71.1h-.17l-.82-71.1h-.2l-.82,71.1h-.18L8.19,1.23h8.21l-.85,72.94Zm23.4,4.54l-23.44-.73-.02,1.65,23.46-.73v-.18Zm0-1.82l-23.42-.73-.02,1.65,23.44-.73v-.18Zm-23.4-2.55l-.02,1.65,23.42-.73v-.18l-23.4-.73Zm19.5-3.73h-.17L58.85,1.23h7.81l-25.87,69.38h-.17l18.69-53.64h-.19l-20.24,53.64h-.17l18.69-53.64h-.19l-20.25,53.64h-.17l18.69-53.64h-.19l-20.25,53.64Zm42.01-53.71h-.19l24.12,71.1h-.17l-25.68-71.1h-.19l24.12,71.1h-.17l-25.68-71.1h-.19l24.12,71.1h-.17L69.75,12.47l-.45,1.35,26.5,74.19h-7.81l-8.14-24.29-27.43-.57-2.57,7.46h-7.81L67.89,1.23h.17l-18.69,53.64h.19L69.8,1.23h.17l-18.69,53.64h.19L71.72,1.23h.17l-18.69,53.64h.19L73.34,1.23h.17l29.41,86.78h-.17l-25.68-71.1Zm-11.58,45.44l-12.66-.44-.34,1,12.95-.44.06-.13Zm.56-1.27l-12.78-.44-.35,1.01,13.07-.44.06-.12Zm.56-1.27l-12.91-.45-.35,1.02,13.2-.44.06-.13Zm11.5-1.24l-.21-.62-23.9.56-.21.62,24.32-.56Zm-1.54-4.59l-10.37-30.94-10.45,30.38,20.82.56Zm.91,2.7l-18.07.49-.06.13,18.5.49-.37-1.1Zm-.06-.17l-.37-1.1-17.09.48-.06.13,17.51.49Zm-.43-1.28l-.37-1.1-16.1.49-.06.13,16.52.48Zm7.62,17.03l-17.46-52.08-.64,1.92,17.91,50.16h.19Zm1.91,0l-18.42-54.94-.67,2.01,18.9,52.92h.19Zm-17.46-57.79l-.71,2.1,19.89,55.69h.19l-19.37-57.79Z"/>
      <path class="cls-1" d="m211.66,54.62c-.36.03-.72.05-1.08.07l16.58,33.4h-.2l-14.46-25.9h-.23l12.6,25.9h-.2l-14.46-25.9h-.23l12.6,25.9h-.2l-14.46-25.9h-.23l12.6,25.9h-.2l-17.69-33.48-6.24-.09c-.55,6.1-2.42,12.2-5.05,16.95-6.36,11.48-18.22,17.75-31.48,17.71-21.9-.12-36.3-16.62-36.19-38.92l.24-49.01h.18l.27,48.88c.04,7.22,1.65,13.57,3.89,18.38,2.58,5.55,6.78,10.57,11.78,13.86,3.01,2,7.38,3.8,11.02,4.63,2,.45,6.38.93,8.53.93,1.35,0,5.08-.3,5.75-.39,2.99-.48,6.78-1.58,8.5-2.27,3.69-1.51,7.19-3.74,10.13-6.58,2.95-2.84,5.3-6.26,7-9.88,2.72-5.87,3.89-13.05,3.89-18.92l-.06-34.3h-.21l-.07,34.3c0,6.58-1.67,13.74-4.02,18.69-1.71,3.55-4.05,6.88-6.96,9.64-2.91,2.76-6.35,4.91-9.97,6.35-2.05.81-5.8,1.76-8.34,2.15-1.06.12-4.38.33-5.26.33-2.22,0-6.55-.49-8.7-.99-3.45-.83-7.81-2.66-10.66-4.59-4.81-3.23-8.87-8.03-11.26-13.48-3.87-8.83-3.62-16.5-3.61-18.55l.25-48.19h.18l.25,48.19c.03,6.69,1.42,12.66,3.71,18.17,2.22,5.36,6.31,9.88,11.03,12.98,2.79,1.85,6.96,3.57,10.35,4.35,2.29.51,6.53.88,8.07.88,1.31,0,4.85-.29,5.48-.37,2.36-.38,6.05-1.35,8.02-2.14,3.47-1.42,6.73-3.51,9.48-6.16,2.75-2.65,4.95-5.85,6.55-9.26,2.9-6.26,3.35-11.05,3.69-18.02l-.06-34.29h-.21l-.07,34.28c0,6.2-1.61,13.14-3.81,17.79-1.61,3.33-3.79,6.45-6.51,9.02-2.72,2.57-5.92,4.58-9.32,5.93-2.26.89-5.94,1.73-7.86,2.02-1.01.11-4.15.31-4.99.31-2.07,0-6.24-.47-8.25-.94-3.24-.78-7.31-2.49-9.99-4.3-4.48-3.01-8.4-7.48-10.51-12.61-2.03-4.92-3.46-10.08-3.42-17.65l.25-48.19h.18l.25,48.19c.03,5.99,1.03,11.85,3.51,17.28,2.22,4.87,5.92,9.23,10.28,12.1,2.56,1.7,6.54,3.34,9.68,4.06,2.16.48,6.21.83,7.62.83,1.26,0,4.62-.28,5.21-.35,2.2-.35,5.74-1.29,7.53-2.01,3.24-1.32,6.27-3.27,8.83-5.74,2.56-2.47,4.6-5.45,6.1-8.64,2.3-4.98,3.48-11.31,3.48-17.11l-.06-34.27h-.21l-.07,34.27c-.27,6.09-1.11,11.63-3.6,16.88-1.51,3.12-3.54,6.02-6.06,8.4-2.52,2.38-5.49,4.25-8.67,5.51-1.72.68-5.16,1.56-7.37,1.89-.97.11-3.92.29-4.72.29-2.34,0-6.38-.55-7.8-.89-3.28-.79-6.48-2.1-9.32-4.02-4.15-2.8-7.62-7.03-9.76-11.73-2.36-5.19-3.16-10.61-3.22-16.13,0-.91.08-17.1.25-48.82h.18l.27,48.92c.04,7.47,2.23,13.8,4.29,17.59.97,1.79,2.17,3.45,3.52,4.96,1.35,1.51,2.88,2.85,4.53,4,4.78,3.3,10.96,4.92,16.97,4.89,3.95-.02,7.93-.69,11.62-2.19,1.84-.75,3.61-1.71,5.24-2.86,1.63-1.15,3.13-2.5,4.45-4.01,5.31-6.04,7.53-14.9,7.48-22.38l-.25-48.91h13.94c8.25,0,12.71-.12,18.16,2.28,9.6,4.23,15.17,13.78,15.17,24.38,0,11.69-6.75,21.78-17.35,25.39l19.51,34.79h-9.34l-16.61-33.46Zm-76.17,12.63c-2.91-5.23-4.13-11.66-4.16-17.1l-.27-48.91h8.43l-.25,48.8c.2,14.32,7.53,22.85,20.38,22.95,12.75.08,20.48-8.03,20.9-22.95l.27-48.81h.18l.25,48.73c0,2.42-.31,5.59-.69,7.1-.36,1.68-.41,1.65-1.04,3.74l-.7,1.75c-1.45,3.2-3.87,6.21-6.72,8.16-1.94,1.32-4.19,2.25-6.6,2.84-1.21.29-2.47.47-3.75.58-1.28.12-2.6.12-3.89.05-2.51-.06-5.74-.92-7.31-1.53-8.98-3.56-13.02-12.62-13.02-23.41v-2.45l-.05-31.19h-.21l-.05,31.19v2.76c-.01,8.42,2.2,19.38,13.08,23.8,2.1.86,5.25,1.62,7.53,1.69,1.32.09,2.69.11,4.01,0,1.32-.09,2.63-.27,3.89-.55,2.51-.58,4.88-1.52,6.96-2.88,3.08-2.03,5.63-5.11,7.24-8.53l.76-1.83c.84-2.68.87-2.73,1.14-3.9.3-1.14.79-4.85.82-7.63l.26-48.47h.18l.25,48.48c0,2.51-.36,6.24-.74,7.79-.44,2-.51,2.02-1.12,4.03l-.77,1.9c-.56,1.23-1.21,2.41-1.95,3.51-1.48,2.2-3.36,4.06-5.52,5.52-2.16,1.47-4.64,2.49-7.27,3.13-1.32.31-2.67.51-4.05.63-1.38.12-2.79.12-4.17.05-1.31-.05-3.36-.39-4.08-.53-5.22-1.11-10.02-4.04-13.14-8.36-1.4-1.95-2.84-4.96-3.58-7.38-1.1-3.59-1.49-6.77-1.49-13.23l-.05-31.19h-.21l-.05,31.19c0,5.98.05,8.99,1.35,13.37.86,2.91,2.4,5.91,3.57,7.59,3.13,4.46,8.06,7.58,13.44,8.8.95.2,3.42.56,4.19.6,1.42.09,2.87.11,4.28,0,1.42-.1,2.82-.29,4.19-.6,2.73-.63,5.33-1.66,7.63-3.17,3.42-2.25,6.21-5.62,7.99-9.41l.83-1.98c.96-3.06.96-3.08,1.22-4.19.38-1.48.86-5.84.86-7.78,0-.19.01-.08.27-48.77h.18l.25,48.77-.07,2.3c-.05,1.08-.53,4.91-.71,5.65-.46,2.08-.53,2.11-1.2,4.32l-.83,2.06c-1.77,3.9-4.73,7.55-8.21,9.91-2.39,1.61-5.1,2.73-7.94,3.42-1.42.33-2.88.55-4.35.67-1.47.13-2.97.13-4.45.05-1.35-.05-3.61-.42-4.38-.57-4.19-.89-8.43-2.97-11.51-5.88-5.83-5.51-8.3-14.23-8.32-22.11l-.07-34.24h-.21l-.06,34.24c-.02,9.18,2.75,17.3,8.23,22.58,3.13,3.01,7.44,5.22,11.77,6.2,1.01.22,3.68.6,4.49.64,1.51.1,3.05.12,4.56,0,1.51-.11,3.02-.31,4.5-.64,2.94-.68,5.78-1.8,8.3-3.46,4.03-2.66,7.01-6.6,8.73-10.29l.89-2.14c1.02-3.26,1.03-3.29,1.3-4.48.31-1.21.86-7.11.9-8.21,0-.2.01-.11.27-48.79h.18l.25,48.9c-.06,7.92-2.38,16.18-7.22,21.7-1.27,1.45-2.71,2.74-4.27,3.85-1.57,1.11-3.26,2.03-5.04,2.75-3.56,1.45-7.41,2.1-11.25,2.12-5.77.03-11.81-1.54-16.4-4.71-1.59-1.1-3.06-2.39-4.35-3.84-1.3-1.45-2.43-3.05-3.38-4.77h0Zm60.8-14.74c-.02.61-.06,1.22-.12,1.83,12.33-.19,10.16-.16,13.02-.2,14.86-.19,25.12-11.66,25.12-26.08,0-7.34-3.1-14.68-8.57-19.31-5.11-4.42-11.33-5.82-18.13-5.74v.2c7.21.09,12.91,1.56,17.8,5.92,4.99,4.35,8,11.62,8,17.33.62,14.59-9.65,26.23-24.23,26.23l-12.89-.18h0Zm11.31-47.28c14.15-.61,23.82,9.41,23.82,22.55s-9.37,22.91-22.27,22.91l-12.83-.18v.64c0,.4-.01.8-.03,1.19l12.88-.2c13.47,0,23.1-11.06,23.1-23.53,0-14.87-10.73-24.41-24.67-23.58v.2Zm0,2c13.57,0,21.82,8.34,21.82,20.62,0,9.43-5.96,17.58-13.72,19.86-2.35.69-4.62.97-6.57.97l-12.8-.18v1.83l12.83-.19c12.49,0,21.13-10.25,21.13-21.67,0-13.23-8.86-21.72-22.68-21.42v.19Zm-11.05,1.98v.98l13.16-.17c10.92.19,17.55,8.32,17.55,18.14,0,10.36-7.22,19-18.57,18.99l-12.35.18v.98l13.14-.21c11.02,0,18.77-9.44,18.77-19.59,0-6.53-2.87-13.03-8.24-16.53-3.1-1.98-6.75-3.01-11.79-2.95l-11.66.17Zm-.06,7.2l-.13,22.71,13.13.18c8.38,0,10.55-7.68,10.55-11.65,0-7.23-4.96-11.06-11.1-11.06l-12.44-.18Zm.01-2.01v1.81l12.65-.18c7.89,0,12.07,5.28,12.07,12.14,0,4.59-2.31,9.55-6.32,11.51-2.35,1.15-4.89,1.43-6.84,1.42v.2c2.98.03,4.68-.12,7.02-1.26,4.52-2.21,6.97-7.13,6.97-12.27,0-7.65-5.09-13.17-12.88-13.17l-12.67-.21Zm.02-2v1.81l12.67-.18c9,0,14.05,6.2,14.05,14.17,0,5.53-2.73,10.88-7.42,13.28-1,.51-3.67,1.78-7.74,1.64v.2c4.26.16,6.62-.84,7.92-1.48,5.11-2.51,8.07-8.15,8.07-14.07,0-8.66-5.6-14.89-14.86-15.18l-12.69-.19Zm12.69-.38c10.06,0,16.03,7.14,16.03,16.16,0,9.85-6.87,17.17-17.17,16.95v.2c11.04.48,18.01-7.59,18.01-17.56s-6.68-17.13-17.3-17.21l-12.23-.18v1.81l12.67-.18Zm13.31,60.62l-8.77-18.29c-.59.09-1.2.17-1.81.23l10.35,18.06h.23Zm2.29,0l-8.97-18.71c-.58.14-1.17.26-1.77.37l10.51,18.34h.23Zm-6.95-19.29c-.57.19-1.15.36-1.74.51l10.76,18.78h.23l-9.24-19.29Z"/>
      <path class="cls-1" d="m289.27,1.23l-31.3,86.84h-.17l24.12-71.1h-.19l-25.68,71.1h-.17l24.12-71.1h-.19l-25.68,71.1h-.17l24.12-71.1h-.19l-25.68,71.1h-.17L281.46,1.23h7.81Zm10.41,15.68h-.19l24.12,71.1h-.17l-25.68-71.1h-.19l24.12,71.1h-.17l-25.68-71.1h-.19l24.12,71.1h-.17l-27.27-75.54-.45,1.35,26.5,74.19h-7.81l-5.56-16.57-32.16-.85-5.86,17.48h-7.81L290.49,1.23h.17l-24.12,71.1h.19L292.41,1.23h.17l-24.12,71.1h.19L294.32,1.23h.17l-24.12,71.1h.19L295.95,1.23h.17l29.41,86.78h-.17l-25.68-71.1Zm-11.73,52.62l-14.5-.69-.53,1.57,14.97-.7.06-.18Zm.56-1.76l-14.47-.69-.52,1.56,14.94-.69.05-.17Zm.56-1.76l-14.44-.69-.52,1.56,14.91-.69.05-.18Zm13.69-1.33l-.42-1.25-27.36.84-.29.86,27.89-.86.17.41Zm-1.66-4.94l-12.3-36.7-11.43,34.1,22.91.84-.05.15-17.25.72-.06.17,18.17.71Zm.65,1.92l-19.89.71-.06.18,20.47.69-.53-1.58Zm-.06-.17l-.56-1.66-.02.07-18.69.72-.06.17,19.32.7Zm5.53,10.78l-17.46-52.08-.64,1.92,17.91,50.16h.19Zm1.91,0l-18.42-54.94-.67,2.01,18.9,52.92h.19Zm-17.46-57.79l-.7,2.1,19.89,55.69h.19l-19.37-57.79Z"/>
      <path class="cls-1" d="m396.36,1.23l1,86.84h-8.21l1-86.84h.17l.82,71.1h.2l.82-71.1h.18l.82,71.1h.2l.82-71.1h.18l.82,71.1h.2l.82-71.1h.17Zm68.31,0l1,86.84h-8.21l.7-60.87-25.1,49.22-1.05-.02-1.05.02-25.69-50.08-.71,61.72h-.17l-.82-71.1h-.2l-.82,71.1h-.18l-.82-71.1h-.2l-.82,71.1h-.17l-.82-71.1h-.2l-.82,71.1h-.18l-1-86.84h8.21l26.45,51.72L458.45,1.24h0s.17,0,.17,0l.82,71.1h.2l.82-71.1h.18l.82,71.1h.2l.82-71.1h.17l.82,71.1h.2l.82-71.1h.18Zm-35.75,67.77l-23.61-45.84-.03,2.33,23.64,44.07v-.56Zm0-3.42l-23.58-45.58-.03,2.4,23.6,43.77v-.59Zm0-3.33l-23.54-45.41-.03,2.46,23.57,43.54v-.6Zm29.36-45.67l.02-1.57-26.29,48.49-26.6-48.8-.02,1.51,26.62,48.83,26.27-48.46Zm-51.89-7.04l25.63,49.87,25.63-49.87-.15-.12-25.48,47.78-25.48-47.78-.15.12Zm.07-3.41l25.55,50.05,25.55-50.05-.15-.13-25.41,48.03-25.41-48.03-.15.13Zm50.96,6.56l-25.41,47.65-25.41-47.65-.15.13,25.55,49.82,25.55-49.82-.15-.13Zm-22.37,52.86v.62l23.16-43.12.03-2.48-23.19,44.98Zm23.12-39.26l.03-2.4-23.15,45.08v.59l23.12-43.27Zm.07-6.47l.03-2.55-23.22,44.95v.63l23.19-43.03Zm15.63-18.59l-1,86.84h-.18l-.82-71.1h-.2l-.82,71.1h-.18l-.82-71.1h-.2l-.82,71.1h-.17l-.82-71.1h-.2l-.82,71.1h-.18l-1-86.84h8.22Z"/>
      <path class="cls-1" d="m535.02,1.23l-31.3,86.84h-.17l24.12-71.1h-.19l-25.68,71.1h-.17l24.12-71.1h-.19l-25.68,71.1h-.17l24.12-71.1h-.19l-25.68,71.1h-.17L527.21,1.23h7.81Zm10.41,15.68h-.19l24.12,71.1h-.17l-25.68-71.1h-.19l24.12,71.1h-.17l-25.68-71.1h-.19l24.12,71.1h-.17l-27.27-75.54-.45,1.35,26.5,74.19h-7.81l-5.56-16.57-32.16-.85-5.86,17.48h-7.81L536.24,1.23h.17l-24.12,71.1h.19L538.15,1.23h.17l-24.12,71.1h.19L540.06,1.23h.17l-24.12,71.1h.19L541.69,1.23h.17l29.41,86.78h-.17l-25.68-71.1Zm-11.73,52.62l-14.5-.69-.53,1.57,14.97-.7.06-.18Zm.56-1.76l-14.47-.69-.52,1.56,14.94-.69.05-.17Zm.56-1.76l-14.44-.69-.52,1.56,14.91-.69.05-.18Zm13.69-1.33l-.42-1.25-27.36.84-.29.86,27.89-.86.17.41Zm-1.66-4.94l-12.3-36.7-11.43,34.1,22.91.84-.05.15-17.25.72-.06.17,18.17.71Zm.65,1.92l-19.89.71-.06.18,20.47.69-.53-1.58Zm-.06-.17l-.56-1.66-.02.07-18.69.72-.06.17,19.32.7Zm5.53,10.78l-17.46-52.08-.64,1.92,17.91,50.16h.19Zm1.91,0l-18.42-54.94-.67,2.01,18.9,52.92h.19Zm-17.46-57.79l-.7,2.1,19.89,55.69h.19l-19.37-57.79Z"/>
      <path class="cls-1" d="m591.11,81.59l57.24-.9v7.43l-57.24-.9v-.16l40.53-.74v-.18l-40.53-.74v-.16l40.53-.74v-.18l-40.53-.74v-.16l40.53-.74v-.18l-40.53-.74v-.16Zm18.15-6.51v.18l39.1.74v.16l-39.1.74v.18l39.1.74v.16l-39.1.74v.18l39.1.74v.16l-57.24.9v-7.43l39.18-57.71-36.16.61v-7.43l53.21.9v.16l-36.75.74v.18l36.75.74v.16l-36.75.74v.18l36.75.74v.16l-36.75.74v.18l36.75.74v.16l-39.56,58.27,40.57.64v.16l-39.09.74Zm38.08-66.31l-53.21-.9v-.16l36.75-.74v-.18l-36.75-.74v-.16l36.75-.74v-.18l-36.75-.74v-.16l36.75-.74v-.18l-36.75-.74v-.16l53.21-.9v7.43Zm-47.88,54.77l.21.02,32.85-48.03-1.98.03-31.08,47.98Zm.52,9.87l1.06.02,37.39-58.01-1.22.02-37.23,57.97Zm34.84-48.75l-.21-.02-33.36,48.79,1.96.03,31.61-48.8Zm-.08-9.18l-1.98.03-31.21,48.19.21.02,32.99-48.24Zm-31.31,57.98l1.96.03,31.52-48.66-.21-.02-33.27,48.65Zm.2-9.59l.21.02,33.13-48.45-1.99.03-31.35,48.4Zm35.36-38.88l-.21-.02-33.18,48.51,1.95.03,31.43-48.53Z"/>
      <path class="cls-1" d="m671.78,81.59l57.24-.9v7.43l-57.24-.9v-.16l40.53-.74v-.18l-40.53-.74v-.16l40.53-.74v-.18l-40.53-.74v-.16l40.53-.74v-.18l-40.53-.74v-.16Zm18.15-6.51v.18l39.1.74v.16l-39.1.74v.18l39.1.74v.16l-39.1.74v.18l39.1.74v.16l-57.24.9v-7.43l39.18-57.71-36.16.61v-7.43l53.21.9v.16l-36.75.74v.18l36.75.74v.16l-36.75.74v.18l36.75.74v.16l-36.75.74v.18l36.75.74v.16l-39.56,58.27,40.57.64v.16l-39.09.74Zm38.08-66.31l-53.21-.9v-.16l36.75-.74v-.18l-36.75-.74v-.16l36.75-.74v-.18l-36.75-.74v-.16l36.75-.74v-.18l-36.75-.74v-.16l53.21-.9v7.43Zm-47.88,54.77l.21.02,32.85-48.03-1.98.03-31.08,47.98Zm.52,9.87l1.06.02,37.39-58.01-1.22.02-37.23,57.97Zm34.84-48.75l-.21-.02-33.36,48.79,1.96.03,31.61-48.8Zm-.08-9.18l-1.98.03-31.21,48.19.21.02,32.99-48.24Zm-31.31,57.98l1.96.03,31.52-48.66-.21-.02-33.27,48.65Zm.2-9.59l.21.02,33.13-48.45-1.99.03-31.35,48.4Zm35.36-38.88l-.21-.02-33.18,48.51,1.95.03,31.43-48.53Z"/>
      <path class="cls-1" d="m839.86,44.24c-.09,19.5-11.17,35.14-27.9,41.63-5.14,2-11.59,3.18-17.17,3.17-11.8-.06-23.27-4.59-31.57-12.52-4.11-3.93-7.39-8.62-9.62-13.74-2.2-5.06-3.29-10.53-3.29-18.35s1.14-13.24,3.42-18.42c4.5-10.26,13.32-18.63,24.1-22.84,5.32-2.09,11.07-3.15,16.78-3.15s11.68,1.11,17.08,3.28c16.36,6.54,27.12,22.03,27.05,40.96h1.12Zm-1.33,0c0-12.07-3.94-20.84-8.83-26.99-4.13-5.2-9.83-9.49-16.15-12.54-2.83-1.36-10.06-3.98-18.58-3.98-12.76,0-24.53,5.43-32.47,13.92l-1.13,1.26c-6.13,7.16-9.78,16.81-9.78,28.03,0,7.43,1.31,13.79,3.38,18.39,2.64,5.85,7.13,11.59,12.3,15.62,7.38,5.53,16.17,9.33,27.97,9.33,6.93,0,12.46-1.67,17.48-3.84l-.09-.19c-5.55,2.38-11.37,3.65-17.47,3.65-11.42,0-19.48-3.35-27.48-9.41-5.47-4.34-9.24-9.78-11.96-15.46-1.78-3.7-3.18-11-3.18-17.74,0-11.02,3.65-20.85,9.75-27.66l1.11-1.22c7.89-8.3,19.24-13.22,30.87-13.22,13.9,0,26.73,6.45,33.96,16.1,5.42,7.25,8.24,14.76,8.24,25.93h2.06Zm-2.26,0c0-4.62-.37-15.62-8.38-25.69-7.97-10.02-20.1-15.63-33.34-15.63-11.39,0-22.72,5-30.36,13.18-6.47,6.92-10.34,16.59-10.34,27.85,0,7.35,1.2,13.1,3.21,17.56,2.52,5.58,6.74,10.97,11.66,14.8,7.5,5.47,14.56,8.31,24.02,8.76,7.76.3,14.78-1.54,19.03-3.57l-.09-.19c-4.58,2.05-10.36,3.48-16.32,3.48-.86,0-1.73-.03-2.6-.09-5.41-.39-14.15-1.55-23.64-8.84-4.84-3.84-8.66-8.96-11.32-14.64-2.05-4.38-3.01-10.32-3.01-16.92,0-11.04,3.94-21,10.29-27.44,7.61-7.99,18.26-12.52,29.54-12.52,7.58,0,12.98,1.77,17.23,3.75,6.1,2.84,10.38,6.43,14.57,11.51,7.53,9.26,7.78,20.21,7.78,24.64h2.07Zm-2.27,0c0-4.43-.31-14.92-7.93-24.39-1.76-2.49-7.66-8.29-14.48-11.24-7.22-3.12-12.8-3.56-16.73-3.56-21.25,0-38.76,16.72-38.76,38.89,0,8.3.96,12.14,3.04,16.74,2.35,5.2,6.43,10.41,11.02,13.98,2.82,2.19,10.55,7.69,22.69,8.27,5.77.22,13.27-1.08,17.97-3.37l-.09-.19c-5.73,2.48-11.83,3.47-17.85,3.19-9.94-.41-17.24-4.53-22.3-8.35-4.92-3.9-8.19-8.75-10.68-13.81-1.59-3.24-2.83-8.79-2.83-16.09,0-21.52,16.85-37.8,37.37-37.8,12.38,0,23.39,5.58,30.19,14.4,5.87,7.61,7.36,15.54,7.33,23.34h2.06Zm-2.26,0c-.04-10.04-3.01-17.47-7.49-23.11-7.13-8.98-18.37-13.92-29.3-13.92-20.06,0-36.68,15.59-36.59,37.03.02,6.88.99,11.38,2.83,15.54,1.84,4.16,4.56,7.95,7.93,11.12,3.38,3.17,7.4,5.69,11.79,7.39,4.39,1.7,9.13,2.56,13.86,2.54,4.73-.02,9.45-.93,13.8-2.66,13.34-5.3,22.11-17.85,22.05-33.92h-1.1c.07,15.64-8.44,27.81-21.37,32.96-4.22,1.68-8.79,2.56-13.38,2.58-4.59.02-9.18-.81-13.43-2.46-4.25-1.64-8.16-4.1-11.43-7.16s-5.9-6.75-7.69-10.78-2.72-8.39-2.75-15.14c-.09-20.79,15.99-35.98,35.47-35.98,4.6,0,9.21.85,13.48,2.52,9.05,3.53,15.98,10.53,19.43,18.38,1.82,4.12,2.77,8.6,2.79,15.08h1.1Zm-22.89-31.15c-4.27-1.89-8.95-3.02-14.47-3.02-9.5,0-18.67,3.97-25.13,10.95-5.35,5.74-8.46,13.75-8.46,23.52s2.94,17.07,8.56,23.62c6.47,6.87,15.88,10.9,25.58,10.9,19.36,0,34.39-14.95,34.39-34.81h-2.06c0,9.78-2.51,15.97-6.39,20.88-4.8,6.07-14.26,12.53-25.86,12.53-9.65,0-18.36-3.62-24.75-10.25-5.71-6.72-8.53-14.21-8.53-23.9,0-9.16,2.71-16.17,8.04-22.05,5.63-6.21,14.47-11.02,25.08-11.02,7.5,0,12.65,2.31,13.91,2.85l.09-.19Zm16.15,31.16c0,9.18-2.32,14.98-5.94,19.59-6.91,8.8-16.18,11.65-24.57,11.65-18.01,0-30.48-14.42-30.48-31.86,0-8.48,2.3-15.11,7.46-20.76,5.86-6.77,15.14-10.27,23.38-10.27,4.99,0,8.67.88,12.96,2.65l.09-.2c-3.69-1.54-7.57-2.82-13.44-2.82-10.05,0-18.04,4.36-23.5,10.21-5.19,5.55-7.9,13.41-7.9,22.1,0,9.97,2.77,15.75,7.99,22.2,6.02,6.39,14.88,10.19,23.92,10.19,12.49,0,21.31-6.69,25.56-12.04,4.11-5.18,6.54-11.85,6.54-20.63h-2.06,0Zm-6.28,19.34c4.13-5.2,6.08-11.29,6.08-19.35h-2.06c0,8.81-2.29,14.23-5.49,18.31-5.46,6.95-14.33,10.79-23.52,10.79-5.96,0-12.53-2.56-16.78-5.84-7.05-5.37-10.7-13.18-10.7-23.44,0-8.25,2.27-14.56,6.93-19.77,5.36-5.98,13.26-9.53,21.67-9.53,6.08,0,10.42,1.77,12.01,2.45l.09-.19c-1.64-.73-5.98-2.62-12.5-2.62-9.4,0-17.18,4.49-21.8,9.47-4.6,4.91-7.35,12.01-7.35,20.68,0,9.4,2.62,14.89,7.41,20.77,5.52,5.86,13.85,9.48,22.11,9.48,6.54,0,16.66-2.09,23.88-11.19h0Zm2.7-19.35c.08-16.23-12.1-27.7-26.79-27.7-7.04,0-13.97,2.71-18.99,7.44-5.05,4.76-8.01,11.48-8.07,20.27-.04,9.14,2.83,15.84,7.87,20.68,5.09,4.88,12.08,7.67,19.33,7.72,7.23.04,14.38-2.71,19.53-7.53,5.48-5.12,8.18-12.02,8.23-20.87h-1.12Z"/>
      <path class="cls-1" d="m963.04,1.13v7.43l-103.79-.9v-.16l71.69-.74v-.18l-71.69-.74v-.16l71.69-.74v-.18l-71.69-.74v-.16l71.69-.74v-.18l-71.69-.74v-.16l103.79-.9Zm-103.78,7.42l103.79.9v.16l-71.69.74v.18l71.69.74v.16l-71.69.74v.18l71.69.74v.16l-71.69.74v.18l71.69.74v.16l-23.87.24-1,72.78h-.17l-.82-59.59h-.2l-.82,59.59h-.18l-.82-59.59h-.2l-.82,59.59h-.18l-.82-59.59h-.2l-.82,59.59h-.17l-1-72.74h-.98l1,72.73h-8.21l1-72.68-27.87.24-1,72.43h-.17l-.82-59.59h-.2l-.82,59.59h-.17l-.82-59.59h-.2l-.82,59.59h-.17l-.82-59.59h-.2l-.82,59.59h-.18l-.99-72.36h-.98l1,72.35h-8.21l.99-72.3-21.23.19v-7.41Zm22.43,66.35l.81-59.13-1.82.02.81,59.11h.2Zm2.01,0l.81-59.14-1.83.02.81,59.13h.2Zm2.83-59.16l-1.83.02.81,59.15h.2l.81-59.16Zm38.44,59.16l.82-59.5-1.83.02.82,59.49h.2Zm2.01,0l.82-59.52-1.84.02.82,59.5h.2Zm2.83-59.54l-1.84.02.82,59.52h.2l.82-59.54Z"/>
      <path class="cls-1" d="m1016.31,1.23l-31.3,86.84h-.17l24.12-71.1h-.19l-25.68,71.1h-.17l24.12-71.1h-.19l-25.68,71.1h-.17l24.12-71.1h-.19l-25.68,71.1h-.17L1008.5,1.23h7.81Zm10.41,15.68h-.19l24.12,71.1h-.17l-25.68-71.1h-.19l24.12,71.1h-.17l-25.68-71.1h-.19l24.12,71.1h-.17l-27.27-75.54-.45,1.35,26.5,74.19h-7.81l-5.55-16.57-32.16-.85-5.86,17.48h-7.81L1017.53,1.23h.17l-24.12,71.1h.19L1019.45,1.23h.17l-24.12,71.1h.19L1021.36,1.23h.17l-24.12,71.1h.19L1022.99,1.23h.17l29.41,86.78h-.17l-25.68-71.1Zm-11.73,52.62l-14.5-.69-.53,1.57,14.97-.7.06-.18Zm.56-1.76l-14.47-.69-.52,1.56,14.94-.69.05-.17Zm.56-1.76l-14.44-.69-.52,1.56,14.91-.69.05-.18Zm13.69-1.33l-.42-1.25-27.36.84-.29.86,27.89-.86.17.41Zm-1.66-4.94l-12.3-36.7-11.43,34.1,22.92.84-.05.15-17.25.72-.06.17,18.17.71Zm.65,1.92l-19.89.71-.06.18,20.47.69-.53-1.58Zm-.06-.17l-.56-1.66-.02.07-18.69.72-.06.17,19.32.7Zm5.53,10.78l-17.46-52.08-.64,1.92,17.91,50.16h.19Zm1.91,0l-18.42-54.94-.67,2.01,18.9,52.92h.19Zm-17.46-57.79l-.71,2.1,19.89,55.69h.19l-19.37-57.79Z"/>
    </g>
  </g>
</svg>