<?xml version="1.0" encoding="UTF-8"?>
<svg id="Layer_2" data-name="Layer 2" xmlns="http://www.w3.org/2000/svg" viewBox="0 0 986.17 70.33">
  <defs>
    <style>
      .cls-1 {
        fill: #fff;
      }
    </style>
  </defs>
  <g id="Layer_1-2" data-name="Layer 1">
    <g>
      <path class="cls-1" d="m13.06,3.33v53.67h31.16v12.61H0V3.33h13.06Z"/>
      <path class="cls-1" d="m101.31,56.64h-21.97l-5.4,12.97h-12.88L90.95.72h.72l29.9,68.89h-15.13l-5.13-12.97Zm-4.32-10.99l-6.39-16.12-6.66,16.12h13.06Z"/>
      <path class="cls-1" d="m153.36,51.15c1.26,1.92,2.94,3.48,5.04,4.68,2.1,1.2,4.35,1.8,6.75,1.8,2.58,0,4.95-.6,7.11-1.8,2.16-1.2,3.86-2.76,5.09-4.68,1.23-1.92,1.85-3.93,1.85-6.03V3.33h12.88v42.06c0,4.74-1.2,9.02-3.6,12.83-2.4,3.81-5.66,6.78-9.77,8.92-4.11,2.13-8.63,3.2-13.55,3.2s-9.43-1.06-13.51-3.2c-4.08-2.13-7.31-5.1-9.68-8.92-2.37-3.81-3.56-8.09-3.56-12.83V3.33h13.06v41.79c0,2.1.63,4.11,1.89,6.03Z"/>
      <path class="cls-1" d="m254.4,69.61l-13.96-21.07h-8.74v21.07h-13.06V3.33h20.08c8.22,0,14.6,2,19.14,5.99,4.53,3.99,6.8,9.44,6.8,16.34,0,4.08-.86,7.91-2.57,11.48-1.71,3.57-4.34,6.38-7.88,8.42l15.4,24.04h-15.22Zm-22.69-33.68h9.28c3.54,0,6.12-1.04,7.74-3.11,1.62-2.07,2.43-4.31,2.43-6.71s-.69-4.7-2.07-6.89c-1.38-2.19-4.05-3.29-8.01-3.29h-9.37v19.99Z"/>
      <path class="cls-1" d="m324.01,56.64h-21.97l-5.4,12.97h-12.88L313.66.72h.72l29.9,68.89h-15.13l-5.13-12.97Zm-4.32-10.99l-6.39-16.12-6.66,16.12h13.06Z"/>
      <path class="cls-1" d="m473.05.63v68.98h-13.06v-31.61l-21.61,30.71h-.18l-20.8-28.73v29.63h-12.61V.63h.09l33.59,47.64L472.87.63h.18Z"/>
      <path class="cls-1" d="m533.75,56.64h-21.97l-5.4,12.97h-12.88L523.39.72h.72l29.9,68.89h-15.13l-5.13-12.97Zm-4.32-10.99l-6.39-16.12-6.66,16.12h13.06Z"/>
      <path class="cls-1" d="m592.37,57h33.95v12.61h-56.37l33.68-53.67h-20.17c-2.04,0-4.01-.64-5.9-1.94-1.89-1.29-2.84-2.81-2.84-4.55V0h11.98v1.26c0,1.02.12,1.64.36,1.85.24.21.63.3,1.17.27.54-.03.99-.05,1.35-.05h36.83l-34.04,53.67Z"/>
      <path class="cls-1" d="m668.2,57h33.95v12.61h-56.37l33.68-53.67h-20.17c-2.04,0-4.01-.64-5.9-1.94-1.89-1.29-2.84-2.81-2.84-4.55V0h11.98v1.26c0,1.02.12,1.64.36,1.85.24.21.63.3,1.17.27.54-.03.99-.05,1.35-.05h36.83l-34.04,53.67Z"/>
      <path class="cls-1" d="m726.59,19.72c3.03-5.22,7.14-9.38,12.34-12.47,5.19-3.09,10.82-4.64,16.88-4.64s11.69,1.55,16.89,4.64c5.19,3.09,9.33,7.25,12.43,12.47,3.09,5.22,4.64,10.84,4.64,16.84s-1.55,11.77-4.64,16.93c-3.09,5.16-7.23,9.26-12.43,12.29-5.19,3.03-10.82,4.55-16.89,4.55s-11.77-1.52-16.93-4.55c-5.16-3.03-9.26-7.13-12.29-12.29-3.03-5.16-4.55-10.81-4.55-16.93s1.52-11.62,4.55-16.84Zm11.71,27.47c1.83,3.24,4.32,5.81,7.47,7.7,3.15,1.89,6.65,2.84,10.49,2.84s7.11-.95,10.18-2.84c3.06-1.89,5.46-4.44,7.2-7.65,1.74-3.21,2.61-6.77,2.61-10.67s-.9-7.56-2.7-10.81c-1.8-3.24-4.25-5.81-7.34-7.7-3.09-1.89-6.53-2.84-10.31-2.84s-7.22.95-10.31,2.84c-3.09,1.89-5.54,4.46-7.34,7.7-1.8,3.24-2.7,6.84-2.7,10.81s.92,7.38,2.75,10.63Z"/>
      <path class="cls-1" d="m851.54,3.33v12.61h-16.12v53.67h-13.06V15.94h-15.49V3.33h44.67Z"/>
      <path class="cls-1" d="m915.12,3.33v12.61h-16.12v53.67h-13.06V15.94h-15.49V3.33h44.67Z"/>
      <path class="cls-1" d="m965.91,56.64h-21.97l-5.4,12.97h-12.88L955.56.72h.72l29.9,68.89h-15.13l-5.13-12.97Zm-4.32-10.99l-6.39-16.12-6.66,16.12h13.06Z"/>
    </g>
  </g>
</svg>